<svg xmlns="http://www.w3.org/2000/svg" version="1" width="800" height="75"><g><path d="M101.418 26.064a31.915 31.915 0 1 1-63.83 0 31.915 31.915 0 1 1 63.83 0z" transform="translate(431.429 -3.434) translate(179.367 14.87)" fill-rule="evenodd"/><path d="M101.418 26.064a31.915 31.915 0 1 1-63.83 0 31.915 31.915 0 1 1 63.83 0z" transform="translate(431.429 -3.434) translate(99.383 14.87)" fill-rule="evenodd"/><path d="M101.418 26.064a31.915 31.915 0 1 1-63.83 0 31.915 31.915 0 1 1 63.83 0z" transform="translate(431.429 -3.434) translate(19.399 14.87)" fill-rule="evenodd"/><path d="M101.418 26.064a31.915 31.915 0 1 1-63.83 0 31.915 31.915 0 1 1 63.83 0z" transform="translate(431.429 -3.434) translate(-60.585 14.87)" fill-rule="evenodd"/><path d="M101.418 26.064a31.915 31.915 0 1 1-63.83 0 31.915 31.915 0 1 1 63.83 0z" transform="translate(431.429 -3.434) translate(-140.57 14.87)" fill-rule="evenodd"/><path d="M101.418 26.064a31.915 31.915 0 1 1-63.83 0 31.915 31.915 0 1 1 63.83 0z" transform="translate(431.429 -3.434) translate(-220.554 14.87)" fill-rule="evenodd"/><path d="M101.418 26.064a31.915 31.915 0 1 1-63.83 0 31.915 31.915 0 1 1 63.83 0z" transform="translate(431.429 -3.434) translate(-300.538 14.87)" fill-rule="evenodd"/><path d="M101.418 26.064a31.915 31.915 0 1 1-63.83 0 31.915 31.915 0 1 1 63.83 0z" transform="translate(431.429 -3.434) translate(-380.522 14.87)" fill-rule="evenodd"/><path d="M101.418 26.064a31.915 31.915 0 1 1-63.83 0 31.915 31.915 0 1 1 63.83 0z" transform="translate(431.429 -3.434) translate(-460.507 14.87)" fill-rule="evenodd"/><path d="M101.418 26.064a31.915 31.915 0 1 1-63.83 0 31.915 31.915 0 1 1 63.83 0z" transform="translate(431.429 -3.434) translate(259.352 14.87)" fill-rule="evenodd"/><path d="M496.534 37.484l22.593 16.188v-8.47h25V29.798h-25v-8.47l-22.593 16.157z" fill="#fff" fill-rule="evenodd"/><path d="M464.028 37.268L441.434 21.08v8.47h-25v15.405h25v8.47l22.594-16.157z" fill="#fff" fill-rule="evenodd"/><path d="M336.564 37.484l22.594 16.188v-8.47h25V29.798h-25v-8.47l-22.594 16.157z" fill="#fff" fill-rule="evenodd"/><path d="M280.392 61.297l-16.188-22.594h8.47v-25h15.405v25h8.468l-16.156 22.594z" fill="#fff" fill-rule="evenodd"/><path d="M200.407 61.297L184.22 38.703h8.468v-25h15.407v25h8.468l-16.156 22.594z" fill="#fff" fill-rule="evenodd"/><path d="M120.422 13.703l-16.187 22.594h8.47v25h15.405v-25h8.47L120.42 13.703z" fill="#fff" fill-rule="evenodd"/><path d="M40.438 13.703L24.25 36.297h8.47v25h15.405v-25h8.47L40.437 13.703z" fill="#fff" fill-rule="evenodd"/><path d="M624.112 37.516l-22.594-16.188v8.47h-25v15.405h25v8.47l22.594-16.157z" fill="#fff" fill-rule="evenodd"/><text x="248.344" y="57.019" style="text-align:center" font-size="44.943" font-weight="bold" text-anchor="middle" fill="#fff" font-family="Arial" transform="translate(431.429 -3.434)"><tspan x="248.344" y="57.019">B</tspan></text><text x="328.954" y="57.019" style="text-align:center" font-size="44.943" font-weight="bold" text-anchor="middle" fill="#fff" font-family="Arial" transform="translate(431.429 -3.434)"><tspan x="328.954" y="57.019">A</tspan></text></g></svg>